<?xml version="1.0" encoding="UTF-8" standalone="no"?>
<!-- Created with Inkscape (http://www.inkscape.org/) -->

<svg
   xmlns:dc="http://purl.org/dc/elements/1.1/"
   xmlns:cc="http://creativecommons.org/ns#"
   xmlns:rdf="http://www.w3.org/1999/02/22-rdf-syntax-ns#"
   xmlns:svg="http://www.w3.org/2000/svg"
   xmlns="http://www.w3.org/2000/svg"
   xmlns:sodipodi="http://sodipodi.sourceforge.net/DTD/sodipodi-0.dtd"
   xmlns:inkscape="http://www.inkscape.org/namespaces/inkscape"
   width="24"
   height="24"
   viewBox="0 0 24 24"
   id="svg2"
   version="1.1"
   inkscape:version="0.91 r"
   sodipodi:docname="call.svg">
  <defs
     id="defs4" />
  <sodipodi:namedview
     id="base"
     pagecolor="#ffffff"
     bordercolor="#666666"
     borderopacity="1.0"
     inkscape:pageopacity="0.0"
     inkscape:pageshadow="2"
     inkscape:zoom="12.344906"
     inkscape:cx="15.324159"
     inkscape:cy="0.057767329"
     inkscape:document-units="px"
     inkscape:current-layer="layer1"
     showgrid="true"
     units="px"
     inkscape:showpageshadow="false"
     borderlayer="true"
     inkscape:window-width="1864"
     inkscape:window-height="1016"
     inkscape:window-x="56"
     inkscape:window-y="36"
     inkscape:window-maximized="1">
    <inkscape:grid
       type="xygrid"
       id="grid4136"
       empspacing="12" />
  </sodipodi:namedview>
  <metadata
     id="metadata7">
    <rdf:RDF>
      <cc:Work
         rdf:about="">
        <dc:format>image/svg+xml</dc:format>
        <dc:type
           rdf:resource="http://purl.org/dc/dcmitype/StillImage" />
        <dc:title />
      </cc:Work>
    </rdf:RDF>
  </metadata>
  <g
     inkscape:label="Layer 1"
     inkscape:groupmode="layer"
     id="layer1"
     transform="translate(0,-1028.3622)">
    <path
       style="opacity:1;fill:#000000;fill-opacity:1;stroke:none;stroke-width:1;stroke-linecap:round;stroke-linejoin:round;stroke-miterlimit:4;stroke-dasharray:none;stroke-dashoffset:0;stroke-opacity:1"
       d="m 6.1493388,1030.3622 c -1.1346774,0.054 -2.3909562,0.3757 -3.0065948,1.4318 -1.2305588,1.5959 -1.4776336,3.8429 -0.6909045,5.6901 0.8010134,2.4241 2.0066561,4.7476 3.8274555,6.5579 1.8979649,2.0284 3.961209,4.0233 6.574926,5.0778 1.534711,0.5991 3.102934,1.3875 4.796608,1.2194 1.428475,-0.1154 2.830111,-0.8223 3.753292,-1.9221 0.418865,-0.8326 0.998949,-2.1978 0.189433,-2.9489 -1.355659,-0.7087 -2.688794,-1.4694 -4.009368,-2.2486 -1.309977,-0.059 -1.741109,1.4991 -2.605698,2.2102 -0.850591,0.6509 -1.834321,-0.1767 -2.569792,-0.6207 -2.396354,-1.453 -4.3250356,-3.6282 -5.5937358,-6.1222 -0.5581942,-1.1541 0.7752127,-1.8375 1.4950021,-2.4481 1.3832207,-0.7692 0.5127623,-2.145 -0.155827,-3.0672 -0.6136216,-0.8411 -0.8648548,-1.9344 -1.6045964,-2.6699 -0.1181127,-0.081 -0.2575929,-0.1296 -0.4002001,-0.1395 z"
       id="path4146"
       inkscape:connector-curvature="0" />
  </g>
</svg>
