<svg xmlns="http://www.w3.org/2000/svg" width="24" height="24" version="1.1"><g><path fill="#000" fill-opacity=".502" stroke="none" d="m 4,6 0,1 5,5 -5,5 0,1 1,0 5,-5 2,2 2,-2 5,5 1,0 0,-1 -5,-5 5,-5 0,-1 -1,0 -7,7 -7,-7 z" transform="translate(0,-1028.3622) translate(0,1028.3622)"/><path fill="#000" stroke="none" d="m 3,1032.3622 c -0.554,0 -1,0.446 -1,1 l 0,14 c 0,0.554 0.446,1 1,1 l 18,0 c 0.554,0 1,-0.446 1,-1 l 0,-14 c 0,-0.554 -0.446,-1 -1,-1 z m 1,2 16,0 0,12 -16,0 z" transform="translate(0,-1028.3622)"/></g></svg>