<?xml version="1.0" encoding="UTF-8" standalone="no"?>
<!-- Created with Inkscape (http://www.inkscape.org/) -->

<svg
   xmlns:dc="http://purl.org/dc/elements/1.1/"
   xmlns:cc="http://creativecommons.org/ns#"
   xmlns:rdf="http://www.w3.org/1999/02/22-rdf-syntax-ns#"
   xmlns:svg="http://www.w3.org/2000/svg"
   xmlns="http://www.w3.org/2000/svg"
   xmlns:sodipodi="http://sodipodi.sourceforge.net/DTD/sodipodi-0.dtd"
   xmlns:inkscape="http://www.inkscape.org/namespaces/inkscape"
   width="24"
   height="24"
   viewBox="0 0 24 24"
   id="svg2"
   version="1.1"
   inkscape:version="0.91 r13725"
   sodipodi:docname="archive.svg">
  <defs
     id="defs4">
    <inkscape:path-effect
       effect="skeletal"
       id="path-effect4229"
       is_visible="true"
       pattern="M 0,0 1,0"
       copytype="repeated"
       prop_scale="1"
       scale_y_rel="false"
       spacing="0"
       normal_offset="0"
       tang_offset="0"
       prop_units="false"
       vertical_pattern="false"
       fuse_tolerance="0" />
    <inkscape:path-effect
       effect="skeletal"
       id="path-effect4216"
       is_visible="true"
       pattern="M 0,0 1,0"
       copytype="single_stretched"
       prop_scale="1"
       scale_y_rel="false"
       spacing="0"
       normal_offset="0"
       tang_offset="0"
       prop_units="false"
       vertical_pattern="false"
       fuse_tolerance="0" />
  </defs>
  <sodipodi:namedview
     id="base"
     pagecolor="#ffffff"
     bordercolor="#666666"
     borderopacity="1.0"
     inkscape:pageopacity="0.0"
     inkscape:pageshadow="2"
     inkscape:zoom="31.678385"
     inkscape:cx="2.2597781"
     inkscape:cy="9.4069336"
     inkscape:document-units="px"
     inkscape:current-layer="layer1"
     showgrid="true"
     inkscape:showpageshadow="false"
     borderlayer="true"
     units="px"
     inkscape:window-width="1864"
     inkscape:window-height="1018"
     inkscape:window-x="56"
     inkscape:window-y="32"
     inkscape:window-maximized="1"
     showguides="true"
     inkscape:guide-bbox="true">
    <inkscape:grid
       type="xygrid"
       id="grid4141"
       empspacing="12" />
  </sodipodi:namedview>
  <metadata
     id="metadata7">
    <rdf:RDF>
      <cc:Work
         rdf:about="">
        <dc:format>image/svg+xml</dc:format>
        <dc:type
           rdf:resource="http://purl.org/dc/dcmitype/StillImage" />
        <dc:title></dc:title>
      </cc:Work>
    </rdf:RDF>
  </metadata>
  <g
     inkscape:label="Layer 1"
     inkscape:groupmode="layer"
     id="layer1"
     transform="translate(0,-1028.3622)">
    <path
       style="opacity:1;fill:#808080;fill-opacity:0.25098039;stroke:none;stroke-width:0.99999988;stroke-linecap:round;stroke-linejoin:round;stroke-miterlimit:4;stroke-dasharray:0.99999988, 0.99999988;stroke-dashoffset:0.99999988;stroke-opacity:0.25098039"
       d="M 10 22 L 10 13.25 C 10 12.0893 9.834939 10.993381 9.5195312 10.003906 C 9.2041235 9.0144313 8.738369 8.1313781 8.140625 7.3925781 C 7.542881 6.6537781 6.8116622 6.0560281 5.953125 5.6425781 C 5.0945878 5.2291281 4.1087322 5 3 5 L 3 22 L 10 22 z "
       id="path4152"
       transform="translate(0,1028.3622)" />
    <path
       style="opacity:1;fill:#808080;fill-opacity:1;stroke:none;stroke-width:0.99999988;stroke-linecap:round;stroke-linejoin:round;stroke-miterlimit:4;stroke-dasharray:0.99999988, 0.99999987999999995;stroke-dashoffset:0.99999988;stroke-opacity:0.25098039"
       d="M 3 4 L 3 5 C 4.1087322 5 5.0945878 5.2291281 5.953125 5.6425781 C 6.8116622 6.0560281 7.542881 6.6537781 8.140625 7.3925781 C 8.738369 8.1313781 9.2041235 9.0144313 9.5195312 10.003906 C 9.834939 10.993381 10 12.0893 10 13.25 L 10 22 L 11 22 L 11 12.734375 C 11 10.276475 10.241272 8.0977031 8.875 6.5332031 C 7.5087281 4.9688031 5.534245 4 3 4 z "
       id="path4149"
       transform="translate(0,1028.3622)" />
    <path
       style="color:#000000;font-style:normal;font-variant:normal;font-weight:normal;font-stretch:normal;font-size:medium;line-height:normal;font-family:sans-serif;text-indent:0;text-align:start;text-decoration:none;text-decoration-line:none;text-decoration-style:solid;text-decoration-color:#000000;letter-spacing:normal;word-spacing:normal;text-transform:none;direction:ltr;block-progression:tb;writing-mode:lr-tb;baseline-shift:baseline;text-anchor:start;white-space:normal;clip-rule:nonzero;display:inline;overflow:visible;visibility:visible;opacity:1;isolation:auto;mix-blend-mode:normal;color-interpolation:sRGB;color-interpolation-filters:linearRGB;solid-color:#000000;solid-opacity:1;fill:#808080;fill-opacity:1;fill-rule:evenodd;stroke:none;stroke-width:0.99999988;stroke-linecap:butt;stroke-linejoin:miter;stroke-miterlimit:4;stroke-dasharray:0.99999998, 0.99999998;stroke-dashoffset:0;stroke-opacity:1;color-rendering:auto;image-rendering:auto;shape-rendering:auto;text-rendering:auto;enable-background:accumulate"
       d="m 2.9765625,1032.4149 0.4414063,0.023 0.046875,-1.0557 -0.4414063,-0.021 z m 1.3886719,0.1134 0.4277344,0.063 0.5019531,0.1319 0.2402343,-1.0247 -0.5253906,-0.1382 -0.023437,-0.011 -0.025391,0 -0.453125,-0.068 z m 1.8320312,0.5011 0.171875,0.063 0.6875,0.3526 0.4375,-0.9505 -0.7070312,-0.3609 -0.023437,-0.013 -0.025391,-0.011 -0.2011718,-0.078 z m 1.6132813,0.9216 0.5195312,0.4309 0.2050781,0.2103 0.6972657,-0.7567 -0.2207031,-0.2268 -0.017578,-0.019 -0.021484,-0.019 -0.5449218,-0.4515 z m 1.3671875,1.3752 0.1660156,0.2063 0.00586,0.01 0.3808594,0.596 0.8300786,-0.5897 -0.386719,-0.6062 -0.01367,-0.023 -0.01758,-0.021 -0.1953128,-0.2495 z m 0.9843746,1.6475 0.28711,0.7258 0.0625,0.2102 0.955078,-0.3154 -0.07031,-0.2351 -0.0078,-0.023 -0.0078,-0.022 -0.296875,-0.7464 z m 0.601563,1.9072 0.09766,0.4804 0.002,0 0.06055,0.5093 0.992188,-0.132 -0.06641,-0.5547 -0.0039,-0.022 -0.0039,-0.023 -0.09961,-0.4845 z m 0.226562,2.002 0.0098,0.2413 0,0.023 0,0.769 1,0 0,-0.7917 0,-0.011 0,-0.011 -0.0098,-0.2639 z m 0.0098,3.1444 1,0 0,-1.0557 -1,0 z m 0,2.1113 1,0 0,-1.0557 -1,0 z m 0,2.1114 1,0 0,-1.0557 -1,0 z m 0,2.1113 1,0 0,-1.0557 -1,0 z"
       id="path4212"
       inkscape:connector-curvature="0" />
    <path
       style="color:#000000;font-style:normal;font-variant:normal;font-weight:normal;font-stretch:normal;font-size:medium;line-height:normal;font-family:sans-serif;text-indent:0;text-align:start;text-decoration:none;text-decoration-line:none;text-decoration-style:solid;text-decoration-color:#000000;letter-spacing:normal;word-spacing:normal;text-transform:none;direction:ltr;block-progression:tb;writing-mode:lr-tb;baseline-shift:baseline;text-anchor:start;white-space:normal;clip-rule:nonzero;display:inline;overflow:visible;visibility:visible;opacity:1;isolation:auto;mix-blend-mode:normal;color-interpolation:sRGB;color-interpolation-filters:linearRGB;solid-color:#000000;solid-opacity:1;fill:#808080;fill-opacity:1;fill-rule:evenodd;stroke:none;stroke-width:0.99999988;stroke-linecap:butt;stroke-linejoin:miter;stroke-miterlimit:4;stroke-dasharray:0.99999988, 0.99999988;stroke-dashoffset:0.99999988;stroke-opacity:1;color-rendering:auto;image-rendering:auto;shape-rendering:auto;text-rendering:auto;enable-background:accumulate"
       d="m 20.005882,1031.3933 -0.02344,0 -0.02344,0 -0.466796,0.07 0.142578,1.0496 0.445312,-0.069 0.501953,-0.023 -0.04687,-1.0599 z m -1.882812,0.3809 -0.02539,0.01 -0.02344,0.01 -0.611328,0.2319 0.339843,0.9977 0.578125,-0.2215 0.324219,-0.085 -0.240234,-1.0288 z m -1.666016,0.737 -0.02539,0.012 -0.02148,0.015 -0.699218,0.4638 -0.02344,0.015 -0.01953,0.017 -0.0957,0.081 0.617187,0.8322 0.07422,-0.062 0.644531,-0.4264 0.03516,-0.019 -0.4375,-0.9544 z m -2.048828,1.6891 -0.01758,0.019 -0.01758,0.021 -0.320313,0.4077 0.769532,0.6789 0.298828,-0.3808 0.34375,-0.3561 -0.697266,-0.7597 z m -1.035156,1.4532 -0.01367,0.024 -0.01172,0.024 -0.386718,0.7639 -0.01172,0.024 -0.0098,0.025 -0.02344,0.062 0.921875,0.4078 0.01367,-0.035 0.363282,-0.7162 0.05469,-0.087 -0.830078,-0.592 z m -1.021485,2.5668 -0.0059,0.024 -0.0059,0.025 -0.08203,0.4036 0.978516,0.2236 0.07813,-0.3851 0.173828,-0.5899 -0.955078,-0.3167 z m -0.310546,1.9086 -0.002,0.024 -0.002,0.02 -0.02734,0.6894 1,0.044 0.02734,-0.6728 0.03906,-0.3394 -0.992188,-0.1326 z m -0.04102,2.8731 1,0 0,-1.0598 -1,0 z m 0,2.1198 1,0 0,-1.0599 -1,0 z m 0,2.1196 1,0 0,-1.0597 -1,0 z m 0,2.1198 1,0 0,-1.0599 -1,0 z"
       id="path4245"
       inkscape:connector-curvature="0" />
    <rect
       style="fill:#808080;fill-opacity:1;stroke:none"
       id="rect4035"
       width="0"
       height="16.499769"
       x="-14.742622"
       y="-1051.918"
       transform="scale(1,-1)" />
    <rect
       style="fill:#808080;fill-opacity:1;stroke:none"
       id="rect4035-7"
       width="0"
       height="16.499769"
       x="-21.245394"
       y="-1048.1393"
       transform="scale(1,-1)" />
    <rect
       style="fill:#808080;fill-opacity:1;stroke:none"
       id="rect4035-9"
       width="0"
       height="16.499769"
       x="-27.684994"
       y="-1066.767"
       transform="scale(1,-1)" />
    <path
       style="fill:#808080;fill-opacity:1;stroke:none"
       d="M 4 1 L 2 3 L 2 22.998047 L 22 22.998047 L 22.005859 2.9902344 L 22 3 L 21.998047 3 L 21.994141 3.0058594 L 21.994141 3 L 21.998047 3 L 21.994141 2.9941406 L 21.994141 2.9902344 L 21.990234 2.9902344 L 20 1 L 4 1 z M 4 2 L 20 2 L 20.990234 2.9902344 L 3 3 L 4 2 z M 3 4 L 21 4 L 21 22 L 3 22 L 3 4 z "
       transform="translate(0,1028.3622)"
       id="rect4139" />
    <path
       style="opacity:1;fill:#808080;fill-opacity:0.25098039;stroke:none;stroke-width:1;stroke-linecap:round;stroke-linejoin:round;stroke-miterlimit:4;stroke-dasharray:none;stroke-dashoffset:1;stroke-opacity:1"
       d="M 4,2 20,2 21,3 3,3 Z"
       id="path4280"
       inkscape:connector-curvature="0"
       transform="translate(0,1028.3622)"
       sodipodi:nodetypes="ccccc" />
    <path
       id="path4154"
       d="m 14,1050.3622 0,-8.75 c 0,-1.1607 0.165061,-2.2566 0.480469,-3.2461 0.315407,-0.9895 0.781162,-1.8725 1.378906,-2.6113 0.597744,-0.7388 1.328963,-1.3366 2.1875,-1.75 0.858537,-0.4135 1.844393,-0.6426 2.953125,-0.6426 l 0,17 -7,0 z"
       style="opacity:1;fill:#808080;fill-opacity:0.25098039;stroke:none;stroke-width:0.99999988;stroke-linecap:round;stroke-linejoin:round;stroke-miterlimit:4;stroke-dasharray:0.99999988, 0.99999988;stroke-dashoffset:0.99999988;stroke-opacity:0.25098039"
       inkscape:connector-curvature="0" />
    <path
       id="path4156"
       d="m 21,1032.3622 0,1 c -1.108732,0 -2.094588,0.2291 -2.953125,0.6426 -0.858537,0.4134 -1.589756,1.0112 -2.1875,1.75 -0.597744,0.7388 -1.063499,1.6218 -1.378906,2.6113 C 14.165061,1039.3556 14,1040.4515 14,1041.6122 l 0,8.75 -1,0 0,-9.2656 c 0,-2.4579 0.758728,-4.6367 2.125,-6.2012 1.366272,-1.5644 3.340755,-2.5332 5.875,-2.5332 z"
       style="opacity:1;fill:#808080;fill-opacity:1;stroke:none;stroke-width:0.99999988;stroke-linecap:round;stroke-linejoin:round;stroke-miterlimit:4;stroke-dasharray:0.99999988, 0.99999988;stroke-dashoffset:0.99999988;stroke-opacity:0.25098039"
       inkscape:connector-curvature="0" />
  </g>
</svg>
