<?xml version="1.0" encoding="UTF-8" standalone="no"?>
<!-- Created with Inkscape (http://www.inkscape.org/) -->

<svg
   xmlns:dc="http://purl.org/dc/elements/1.1/"
   xmlns:cc="http://creativecommons.org/ns#"
   xmlns:rdf="http://www.w3.org/1999/02/22-rdf-syntax-ns#"
   xmlns:svg="http://www.w3.org/2000/svg"
   xmlns="http://www.w3.org/2000/svg"
   xmlns:sodipodi="http://sodipodi.sourceforge.net/DTD/sodipodi-0.dtd"
   xmlns:inkscape="http://www.inkscape.org/namespaces/inkscape"
   width="24"
   height="24"
   viewBox="0 0 24 24"
   id="svg2"
   version="1.1"
   inkscape:version="0.91 r13725"
   sodipodi:docname="binary.svg">
  <defs
     id="defs4" />
  <sodipodi:namedview
     id="base"
     pagecolor="#ffffff"
     bordercolor="#666666"
     borderopacity="1.0"
     inkscape:pageopacity="0.0"
     inkscape:pageshadow="2"
     inkscape:zoom="15.839192"
     inkscape:cx="-5.6652365"
     inkscape:cy="10.288118"
     inkscape:document-units="px"
     inkscape:current-layer="layer1"
     showgrid="true"
     inkscape:showpageshadow="false"
     borderlayer="true"
     units="px"
     inkscape:window-width="1864"
     inkscape:window-height="1018"
     inkscape:window-x="56"
     inkscape:window-y="32"
     inkscape:window-maximized="1"
     showguides="true"
     inkscape:guide-bbox="true">
    <inkscape:grid
       type="xygrid"
       id="grid4141"
       empspacing="12" />
  </sodipodi:namedview>
  <metadata
     id="metadata7">
    <rdf:RDF>
      <cc:Work
         rdf:about="">
        <dc:format>image/svg+xml</dc:format>
        <dc:type
           rdf:resource="http://purl.org/dc/dcmitype/StillImage" />
        <dc:title></dc:title>
      </cc:Work>
    </rdf:RDF>
  </metadata>
  <g
     inkscape:label="Layer 1"
     inkscape:groupmode="layer"
     id="layer1"
     transform="translate(0,-1028.3622)">
    <g
       transform="matrix(1.428552,0,0,-1.4999813,-469.42204,1858.3953)"
       id="layer1-2"
       inkscape:label="Capa 1"
       style="fill:#93a060;fill-opacity:1">
      <rect
         y="538.32489"
         x="318.27991"
         height="10.999983"
         width="0"
         id="rect4035"
         style="fill:#93a060;fill-opacity:1;stroke:none" />
      <rect
         y="540.84399"
         x="313.72791"
         height="10.999983"
         width="0"
         id="rect4035-7"
         style="fill:#93a060;fill-opacity:1;stroke:none" />
      <rect
         y="528.42542"
         x="309.22012"
         height="10.999983"
         width="0"
         id="rect4035-9"
         style="fill:#93a060;fill-opacity:1;stroke:none" />
      <path
         id="rect4139"
         d="m 329.9999,537.3623 0,16 10,0 0,-0.01 0.008,0.01 3.99219,-3.9922 0,-0.008 0,-12 -14,0 z m 0.70003,0.66647 12.60017,0 0,11.33348 -3.50005,0 0,3.33337 -9.10012,0 z"
         style="fill:#93a060;fill-opacity:1;stroke:none"
         inkscape:connector-curvature="0"
         sodipodi:nodetypes="ccccccccccccccccc" />
    </g>
    <path
       style="opacity:1;fill:#93a060;fill-opacity:1;stroke:none;stroke-width:0.5;stroke-linecap:round;stroke-linejoin:round;stroke-miterlimit:4;stroke-dasharray:none;stroke-dashoffset:0;stroke-opacity:1"
       d="M 4 2 L 4 3 L 4 5 L 4 6 L 7 6 L 7 5 L 7 3 L 7 2 L 4 2 z M 5 3 L 6 3 L 6 5 L 5 5 L 5 3 z "
       transform="translate(0,1028.3622)"
       id="rect4140" />
    <rect
       style="opacity:1;fill:#93a060;fill-opacity:1;stroke:none;stroke-width:0.5;stroke-linecap:round;stroke-linejoin:round;stroke-miterlimit:4;stroke-dasharray:none;stroke-dashoffset:0;stroke-opacity:1"
       id="rect4150"
       width="1"
       height="4"
       x="7.9999995"
       y="1030.3622" />
    <path
       id="path4153"
       d="m 10,1030.3622 0,1 0,2 0,1 3,0 0,-1 0,-2 0,-1 -3,0 z m 1,1 1,0 0,2 -1,0 0,-2 z"
       style="opacity:1;fill:#93a060;fill-opacity:1;stroke:none;stroke-width:0.5;stroke-linecap:round;stroke-linejoin:round;stroke-miterlimit:4;stroke-dasharray:none;stroke-dashoffset:0;stroke-opacity:1"
       inkscape:connector-curvature="0" />
    <rect
       y="1030.3622"
       x="14"
       height="4"
       width="1"
       id="rect4155"
       style="opacity:1;fill:#93a060;fill-opacity:1;stroke:none;stroke-width:0.5;stroke-linecap:round;stroke-linejoin:round;stroke-miterlimit:4;stroke-dasharray:none;stroke-dashoffset:0;stroke-opacity:1" />
    <rect
       style="opacity:1;fill:#93a060;fill-opacity:1;stroke:none;stroke-width:0.5;stroke-linecap:round;stroke-linejoin:round;stroke-miterlimit:4;stroke-dasharray:none;stroke-dashoffset:0;stroke-opacity:1"
       id="rect4157"
       width="1"
       height="4"
       x="4"
       y="1035.3622" />
    <rect
       y="1035.3622"
       x="6"
       height="4"
       width="1"
       id="rect4159"
       style="opacity:1;fill:#93a060;fill-opacity:1;stroke:none;stroke-width:0.5;stroke-linecap:round;stroke-linejoin:round;stroke-miterlimit:4;stroke-dasharray:none;stroke-dashoffset:0;stroke-opacity:1" />
    <rect
       style="opacity:1;fill:#93a060;fill-opacity:1;stroke:none;stroke-width:0.5;stroke-linecap:round;stroke-linejoin:round;stroke-miterlimit:4;stroke-dasharray:none;stroke-dashoffset:0;stroke-opacity:1"
       id="rect4161"
       width="1"
       height="4"
       x="4"
       y="1040.3622" />
    <path
       inkscape:connector-curvature="0"
       style="opacity:1;fill:#93a060;fill-opacity:1;stroke:none;stroke-width:0.5;stroke-linecap:round;stroke-linejoin:round;stroke-miterlimit:4;stroke-dasharray:none;stroke-dashoffset:0;stroke-opacity:1"
       d="m 9,1035.3622 0,1 0,2 0,1 3,0 0,-1 0,-2 0,-1 -3,0 z m 1,1 1,0 0,2 -1,0 0,-2 z"
       id="path4163" />
    <path
       inkscape:connector-curvature="0"
       style="opacity:1;fill:#93a060;fill-opacity:1;stroke:none;stroke-width:0.5;stroke-linecap:round;stroke-linejoin:round;stroke-miterlimit:4;stroke-dasharray:none;stroke-dashoffset:0;stroke-opacity:1"
       d="m 13,1035.3622 0,1 0,2 0,1 3.000001,0 0,-1 0,-2 0,-1 -3.000001,0 z m 1.000001,1 1,0 0,2 -1,0 0,-2 z"
       id="path4165" />
    <rect
       y="1035.3622"
       x="19"
       height="4"
       width="1"
       id="rect4167"
       style="opacity:1;fill:#93a060;fill-opacity:1;stroke:none;stroke-width:0.5;stroke-linecap:round;stroke-linejoin:round;stroke-miterlimit:4;stroke-dasharray:none;stroke-dashoffset:0;stroke-opacity:1" />
    <rect
       y="1040.3622"
       x="6"
       height="4"
       width="1"
       id="rect4187"
       style="opacity:1;fill:#93a060;fill-opacity:1;stroke:none;stroke-width:0.5;stroke-linecap:round;stroke-linejoin:round;stroke-miterlimit:4;stroke-dasharray:none;stroke-dashoffset:0;stroke-opacity:1" />
    <rect
       style="opacity:1;fill:#93a060;fill-opacity:1;stroke:none;stroke-width:0.5;stroke-linecap:round;stroke-linejoin:round;stroke-miterlimit:4;stroke-dasharray:none;stroke-dashoffset:0;stroke-opacity:1"
       id="rect4189"
       width="1"
       height="4"
       x="8"
       y="1040.3622" />
    <path
       id="path4191"
       d="m 10,1040.3622 0,1 0,2 0,1 3.000001,0 0,-1 0,-2 0,-1 -3.000001,0 z m 1.000001,1 1,0 0,2 -1,0 0,-2 z"
       style="opacity:1;fill:#93a060;fill-opacity:1;stroke:none;stroke-width:0.5;stroke-linecap:round;stroke-linejoin:round;stroke-miterlimit:4;stroke-dasharray:none;stroke-dashoffset:0;stroke-opacity:1"
       inkscape:connector-curvature="0" />
    <path
       inkscape:connector-curvature="0"
       style="opacity:1;fill:#93a060;fill-opacity:1;stroke:none;stroke-width:0.5;stroke-linecap:round;stroke-linejoin:round;stroke-miterlimit:4;stroke-dasharray:none;stroke-dashoffset:0;stroke-opacity:1"
       d="m 17,1040.3622 0,1 0,2 0,1 3,0 0,-1 0,-2 0,-1 -3,0 z m 1,1 1,0 0,2 -1,0 0,-2 z"
       id="path4193" />
    <rect
       style="opacity:1;fill:#93a060;fill-opacity:1;stroke:none;stroke-width:0.5;stroke-linecap:round;stroke-linejoin:round;stroke-miterlimit:4;stroke-dasharray:none;stroke-dashoffset:0;stroke-opacity:1"
       id="rect4195"
       width="1"
       height="4"
       x="15"
       y="1040.3622" />
    <rect
       style="opacity:1;fill:#93a060;fill-opacity:1;stroke:none;stroke-width:0.5;stroke-linecap:round;stroke-linejoin:round;stroke-miterlimit:4;stroke-dasharray:none;stroke-dashoffset:0;stroke-opacity:1"
       id="rect4197"
       width="1"
       height="4"
       x="17"
       y="1035.3622" />
    <path
       inkscape:connector-curvature="0"
       style="opacity:1;fill:#93a060;fill-opacity:1;stroke:none;stroke-width:0.5;stroke-linecap:round;stroke-linejoin:round;stroke-miterlimit:4;stroke-dasharray:none;stroke-dashoffset:0;stroke-opacity:1"
       d="m 4,1045.3622 0,1 0,2 0,1 3.0000005,0 0,-1 0,-2 0,-1 -3.0000005,0 z m 1.0000005,1 1,0 0,2 -1,0 0,-2 z"
       id="path4199" />
    <path
       id="path4201"
       d="m 17,1045.3622 0,1 0,2 0,1 3.000001,0 0,-1 0,-2 0,-1 -3.000001,0 z m 1.000001,1 1,0 0,2 -1,0 0,-2 z"
       style="opacity:1;fill:#93a060;fill-opacity:1;stroke:none;stroke-width:0.5;stroke-linecap:round;stroke-linejoin:round;stroke-miterlimit:4;stroke-dasharray:none;stroke-dashoffset:0;stroke-opacity:1"
       inkscape:connector-curvature="0" />
    <path
       inkscape:connector-curvature="0"
       style="opacity:1;fill:#93a060;fill-opacity:1;stroke:none;stroke-width:0.5;stroke-linecap:round;stroke-linejoin:round;stroke-miterlimit:4;stroke-dasharray:none;stroke-dashoffset:0;stroke-opacity:1"
       d="m 13,1045.3622 0,1 0,2 0,1 3.000001,0 0,-1 0,-2 0,-1 -3.000001,0 z m 1.000001,1 1,0 0,2 -1,0 0,-2 z"
       id="path4203" />
    <rect
       y="1045.3622"
       x="8"
       height="4"
       width="1"
       id="rect4205"
       style="opacity:1;fill:#93a060;fill-opacity:1;stroke:none;stroke-width:0.5;stroke-linecap:round;stroke-linejoin:round;stroke-miterlimit:4;stroke-dasharray:none;stroke-dashoffset:0;stroke-opacity:1" />
    <rect
       style="opacity:1;fill:#93a060;fill-opacity:1;stroke:none;stroke-width:0.5;stroke-linecap:round;stroke-linejoin:round;stroke-miterlimit:4;stroke-dasharray:none;stroke-dashoffset:0;stroke-opacity:1"
       id="rect4207"
       width="1"
       height="4"
       x="11"
       y="1045.3622" />
  </g>
</svg>
