<?xml version="1.0" encoding="UTF-8" standalone="no"?>
<!-- Created with Inkscape (http://www.inkscape.org/) -->

<svg
   xmlns:dc="http://purl.org/dc/elements/1.1/"
   xmlns:cc="http://creativecommons.org/ns#"
   xmlns:rdf="http://www.w3.org/1999/02/22-rdf-syntax-ns#"
   xmlns:svg="http://www.w3.org/2000/svg"
   xmlns="http://www.w3.org/2000/svg"
   xmlns:sodipodi="http://sodipodi.sourceforge.net/DTD/sodipodi-0.dtd"
   xmlns:inkscape="http://www.inkscape.org/namespaces/inkscape"
   width="24"
   height="24"
   viewBox="0 0 24 24"
   id="svg2"
   version="1.1"
   inkscape:version="0.91 r13725"
   sodipodi:docname="code.svg">
  <defs
     id="defs4" />
  <sodipodi:namedview
     id="base"
     pagecolor="#ffffff"
     bordercolor="#666666"
     borderopacity="1.0"
     inkscape:pageopacity="0.0"
     inkscape:pageshadow="2"
     inkscape:zoom="31.678384"
     inkscape:cx="16.171404"
     inkscape:cy="11.33802"
     inkscape:document-units="px"
     inkscape:current-layer="layer1"
     showgrid="true"
     inkscape:showpageshadow="false"
     borderlayer="true"
     units="px"
     inkscape:window-width="1864"
     inkscape:window-height="1018"
     inkscape:window-x="56"
     inkscape:window-y="32"
     inkscape:window-maximized="1"
     showguides="true"
     inkscape:guide-bbox="true">
    <inkscape:grid
       type="xygrid"
       id="grid4141"
       empspacing="12" />
  </sodipodi:namedview>
  <metadata
     id="metadata7">
    <rdf:RDF>
      <cc:Work
         rdf:about="">
        <dc:format>image/svg+xml</dc:format>
        <dc:type
           rdf:resource="http://purl.org/dc/dcmitype/StillImage" />
        <dc:title></dc:title>
      </cc:Work>
    </rdf:RDF>
  </metadata>
  <g
     inkscape:label="Layer 1"
     inkscape:groupmode="layer"
     id="layer1"
     transform="translate(0,-1028.3622)">
    <g
       transform="matrix(1.428552,0,0,-1.4999813,-469.42204,1858.3953)"
       id="layer1-2"
       inkscape:label="Capa 1"
       style="fill:#40c0a0;fill-opacity:1">
      <rect
         y="538.32489"
         x="318.27991"
         height="10.999983"
         width="0"
         id="rect4035"
         style="fill:#40c0a0;fill-opacity:1;stroke:none" />
      <rect
         y="540.84399"
         x="313.72791"
         height="10.999983"
         width="0"
         id="rect4035-7"
         style="fill:#40c0a0;fill-opacity:1;stroke:none" />
      <rect
         y="528.42542"
         x="309.22012"
         height="10.999983"
         width="0"
         id="rect4035-9"
         style="fill:#40c0a0;fill-opacity:1;stroke:none" />
      <path
         id="rect4139"
         d="m 329.9999,537.3623 0,16 10,0 0,-0.01 0.008,0.01 3.99219,-3.9922 0,-0.008 0,-12 -14,0 z m 0.70003,0.66647 12.60017,0 0,11.33348 -3.50005,0 0,3.33337 -9.10012,0 z"
         style="fill:#40c0a0;fill-opacity:1;stroke:none"
         inkscape:connector-curvature="0"
         sodipodi:nodetypes="ccccccccccccccccc" />
    </g>
    <path
       inkscape:connector-curvature="0"
       id="path4144"
       style="font-style:normal;font-variant:normal;font-weight:normal;font-stretch:normal;font-size:medium;line-height:125%;font-family:Ubuntu;-inkscape-font-specification:Ubuntu;text-align:start;letter-spacing:0px;word-spacing:0px;text-anchor:start;fill:#40c0a0;fill-opacity:1;stroke:none;stroke-width:1px;stroke-linecap:butt;stroke-linejoin:miter;stroke-opacity:1"
       d="m 6.109,1039.9395 q 0.2817902,0 0.4813917,-0.094 0.1996014,-0.1057 0.3287553,-0.2584 0.1408951,-0.1643 0.1996014,-0.3639 0.070448,-0.2114 0.070448,-0.4227 l 0,-2.1134 q 0,-0.4814 0.1056713,-0.8572 0.1056713,-0.3757 0.3639791,-0.6222 0.2583077,-0.2584 0.6809931,-0.3875 0.4344266,-0.1409 1.0684546,-0.1409 l 0.04696,0 0,0.8571 q -0.6692517,0 -0.9627832,0.2466 -0.2817903,0.2348 -0.2817903,0.9158 l 0,1.8081 q 0,0.775 -0.2113427,1.1977 -0.1996014,0.4226 -0.5753217,0.6575 0.3757203,0.2348 0.5753217,0.6575 0.2113427,0.4227 0.2113427,1.1976 l 0,1.8081 q 0,0.681 0.2817903,0.9159 0.2935315,0.2465 0.9627832,0.2465 l 0,0.8571 -0.04696,0 q -0.634028,0 -1.0684546,-0.1291 -0.4226854,-0.1292 -0.6809931,-0.3875 -0.2583078,-0.2583 -0.3639791,-0.634 -0.1056713,-0.3757 -0.1056713,-0.8571 l 0,-2.1134 q 0,-0.2114 -0.070448,-0.411 -0.058706,-0.2113 -0.1996014,-0.364 -0.1291539,-0.1643 -0.3287553,-0.2583 -0.1996015,-0.1056 -0.4813917,-0.1056 l 0,-0.8454 z" />
    <path
       inkscape:connector-curvature="0"
       id="path4146"
       style="font-style:normal;font-variant:normal;font-weight:normal;font-stretch:normal;font-size:medium;line-height:125%;font-family:Ubuntu;-inkscape-font-specification:Ubuntu;text-align:start;letter-spacing:0px;word-spacing:0px;text-anchor:start;fill:#40c0a0;fill-opacity:1;stroke:none;stroke-width:1px;stroke-linecap:butt;stroke-linejoin:miter;stroke-opacity:1"
       d="m 12.650998,1042.5343 q 0.01174,0.094 0.01174,0.1879 0,0.082 0,0.1761 0,0.7397 -0.223084,1.4559 -0.211342,0.728 -0.587063,1.3855 l -0.845371,-0.2701 q 0.293532,-0.5988 0.387462,-1.2211 0.09393,-0.6105 0.09393,-1.1506 0,-0.1527 -0.01174,-0.2936 0,-0.1408 -0.01174,-0.27 l 1.185867,0 z m 0.140895,-3.9803 q 0,0.317 -0.211343,0.5519 -0.211342,0.2348 -0.575321,0.2348 -0.36398,0 -0.575322,-0.2348 -0.211343,-0.2349 -0.211343,-0.5519 0,-0.317 0.211343,-0.5518 0.211342,-0.2349 0.575322,-0.2349 0.363979,0 0.575321,0.2349 0.211343,0.2348 0.211343,0.5518 z" />
    <path
       inkscape:connector-curvature="0"
       id="path4148"
       style="font-style:normal;font-variant:normal;font-weight:normal;font-stretch:normal;font-size:medium;line-height:125%;font-family:Ubuntu;-inkscape-font-specification:Ubuntu;text-align:start;letter-spacing:0px;word-spacing:0px;text-anchor:start;fill:#40c0a0;fill-opacity:1;stroke:none;stroke-width:1px;stroke-linecap:butt;stroke-linejoin:miter;stroke-opacity:1"
       d="m 17.890259,1040.7849 q -0.281791,0 -0.481392,0.1056 -0.199601,0.094 -0.340497,0.2583 -0.129153,0.1527 -0.199601,0.364 -0.05871,0.1996 -0.05871,0.411 l 0,2.1134 q 0,0.4814 -0.105672,0.8571 -0.105671,0.3757 -0.363979,0.634 -0.258307,0.2583 -0.692734,0.3875 -0.422686,0.1291 -1.056714,0.1291 l -0.04696,0 0,-0.8571 q 0.669252,0 0.951042,-0.2465 0.293532,-0.2349 0.293532,-0.9159 l 0,-1.8081 q 0,-0.7749 0.199601,-1.1976 0.211343,-0.4227 0.587063,-0.6575 -0.37572,-0.2349 -0.587063,-0.6575 -0.199601,-0.4227 -0.199601,-1.1977 l 0,-1.8081 q 0,-0.681 -0.293532,-0.9158 -0.28179,-0.2466 -0.951042,-0.2466 l 0,-0.8571 0.04696,0 q 0.634028,0 1.056714,0.1409 0.434427,0.1291 0.692734,0.3875 0.258308,0.2465 0.363979,0.6222 0.105672,0.3758 0.105672,0.8572 l 0,2.1134 q 0,0.2113 0.05871,0.4227 0.07045,0.1996 0.199601,0.3639 0.140896,0.1527 0.340497,0.2584 0.199601,0.094 0.481392,0.094 l 0,0.8454 z" />
  </g>
</svg>
