<svg xmlns="http://www.w3.org/2000/svg" width="24" height="24" version="1.1"><g><g transform="translate(0,-1028.3622) matrix(1.428552,0,0,-1.4999813,-469.42204,1858.3953)"><rect width="0" height="11" x="318.28" y="538.325" fill="#7447b9" stroke="none"/><rect width="0" height="11" x="313.728" y="540.844" fill="#7447b9" stroke="none"/><rect width="0" height="11" x="309.22" y="528.425" fill="#7447b9" stroke="none"/><path fill="#7447b9" stroke="none" d="m 329.9999,537.3623 0,16 10,0 0,-0.01 0.008,0.01 3.99219,-3.9922 0,-0.008 0,-12 -14,0 z m 0.70003,0.66647 12.60017,0 0,11.33348 -3.50005,0 0,3.33337 -9.10012,0 z"/></g><g transform="translate(0,-1028.3622) matrix(0.75,0,0,0.75,-240.75,631.34055)"><rect width="0" height="14.668" x="273.382" y="518.479" fill="#7447b9" stroke="none"/><rect width="0" height="14.668" x="280.342" y="541.049" fill="#7447b9" stroke="none"/><rect width="0" height="14.668" x="282.156" y="539.989" fill="#7447b9" stroke="none"/><path fill="#7447b9" stroke="none" d="M 11,3 3,4.3333333 3,17.666667 11,19 19,17.666667 19,4.3333333 Z M 11,4.3333333 17.666667,5.6666667 11.021045,7.0108923 4.3333333,5.6666667 Z M 17.666667,7 l 0,4 L 11,12.333333 4.3333333,11 4.3122885,7.0513199 11.021045,8.4107444 Z m 0,5.333333 0,4 L 11,17.666667 4.3333333,16.333333 l 0,-4 L 11,13.666667 Z" transform="translate(326,534.3622)"/></g></g></svg>