<?xml version="1.0" encoding="UTF-8" standalone="no"?>
<!-- Created with Inkscape (http://www.inkscape.org/) -->

<svg
   xmlns:dc="http://purl.org/dc/elements/1.1/"
   xmlns:cc="http://creativecommons.org/ns#"
   xmlns:rdf="http://www.w3.org/1999/02/22-rdf-syntax-ns#"
   xmlns:svg="http://www.w3.org/2000/svg"
   xmlns="http://www.w3.org/2000/svg"
   xmlns:sodipodi="http://sodipodi.sourceforge.net/DTD/sodipodi-0.dtd"
   xmlns:inkscape="http://www.inkscape.org/namespaces/inkscape"
   width="24"
   height="24"
   viewBox="0 0 24 24"
   id="svg2"
   version="1.1"
   inkscape:version="0.91 r13725"
   sodipodi:docname="document.svg">
  <defs
     id="defs4" />
  <sodipodi:namedview
     id="base"
     pagecolor="#ffffff"
     bordercolor="#666666"
     borderopacity="1.0"
     inkscape:pageopacity="0.0"
     inkscape:pageshadow="2"
     inkscape:zoom="22.4"
     inkscape:cx="19.071843"
     inkscape:cy="6.3656745"
     inkscape:document-units="px"
     inkscape:current-layer="layer1"
     showgrid="true"
     inkscape:showpageshadow="false"
     borderlayer="true"
     units="px"
     inkscape:window-width="1864"
     inkscape:window-height="1018"
     inkscape:window-x="56"
     inkscape:window-y="32"
     inkscape:window-maximized="1">
    <inkscape:grid
       type="xygrid"
       id="grid4147"
       empspacing="12" />
  </sodipodi:namedview>
  <metadata
     id="metadata7">
    <rdf:RDF>
      <cc:Work
         rdf:about="">
        <dc:format>image/svg+xml</dc:format>
        <dc:type
           rdf:resource="http://purl.org/dc/dcmitype/StillImage" />
        <dc:title></dc:title>
      </cc:Work>
    </rdf:RDF>
  </metadata>
  <g
     inkscape:label="Layer 1"
     inkscape:groupmode="layer"
     id="layer1"
     transform="translate(0,-1028.3622)">
    <path
       style="fill:#199ee7;fill-rule:evenodd;stroke:none;stroke-width:1px;stroke-linecap:butt;stroke-linejoin:miter;stroke-opacity:1;fill-opacity:1"
       d="M 6 4 L 4 9 L 5 9 L 5.4003906 8 L 7.5996094 8 L 8 9 L 9 9 L 7 4 L 6 4 z M 6.5 5.25 L 7.1992188 7 L 5.8007812 7 L 6.5 5.25 z "
       transform="translate(0,1028.3622)"
       id="path4149" />
    <g
       transform="matrix(1.428552,0,0,-1.4999813,-469.42204,1858.3953)"
       id="layer1-2"
       inkscape:label="Capa 1"
       style="fill:#199ee7;fill-opacity:1">
      <rect
         y="538.32489"
         x="318.27991"
         height="10.999983"
         width="0"
         id="rect4035"
         style="fill:#199ee7;fill-opacity:1;stroke:none" />
      <rect
         y="540.84399"
         x="313.72791"
         height="10.999983"
         width="0"
         id="rect4035-7"
         style="fill:#199ee7;fill-opacity:1;stroke:none" />
      <rect
         y="528.42542"
         x="309.22012"
         height="10.999983"
         width="0"
         id="rect4035-9"
         style="fill:#199ee7;fill-opacity:1;stroke:none" />
      <path
         id="rect4139"
         d="m 329.9999,537.3623 0,16 10,0 0,-0.01 0.008,0.01 3.99219,-3.9922 0,-0.008 0,-12 -14,0 z m 0.70003,0.66647 12.60017,0 0,11.33348 -3.50005,0 0,3.33337 -9.10012,0 z"
         style="fill:#199ee7;fill-opacity:1;stroke:none"
         inkscape:connector-curvature="0"
         sodipodi:nodetypes="ccccccccccccccccc" />
    </g>
    <rect
       style="fill:#8e44ad;fill-opacity:1;stroke:none"
       id="rect4035-30"
       width="0"
       height="14.668059"
       x="-51.618195"
       y="1013.4788" />
    <rect
       style="fill:#8e44ad;fill-opacity:1;stroke:none"
       id="rect4035-8"
       width="0"
       height="14.668059"
       x="-44.657623"
       y="1036.0493" />
    <rect
       style="fill:#8e44ad;fill-opacity:1;stroke:none"
       id="rect4035-0"
       width="0"
       height="14.668059"
       x="-42.84433"
       y="1034.9886" />
    <rect
       style="fill:#22a7f0;fill-opacity:1;stroke:none"
       id="rect4035-3"
       width="0"
       height="14.668059"
       x="-51.618195"
       y="1013.4788" />
    <rect
       style="fill:#22a7f0;fill-opacity:1;stroke:none"
       id="rect4035-8-9"
       width="0"
       height="14.668059"
       x="-44.657623"
       y="1036.0493" />
    <rect
       style="fill:#22a7f0;fill-opacity:1;stroke:none"
       id="rect4035-0-4"
       width="0"
       height="14.668059"
       x="-42.84433"
       y="1034.9886" />
    <g
       id="g5310"
       transform="translate(0.02027355,0.29565)">
      <path
         sodipodi:nodetypes="ccccccccccccccccccccccccccccccccccc"
         inkscape:connector-curvature="0"
         style="fill:#199ee7;fill-opacity:1;stroke:none;stroke-width:2;stroke-linecap:round;stroke-linejoin:round;stroke-miterlimit:4;stroke-dasharray:none"
         d="m 9.9797264,1033.0666 0,1 3.9999996,0 0,-1 z m 0,3 0,1 9.9999996,0 0,-1 z m -6,5 0,1 6.9999996,0 0,-1 z m 8.0202736,0 0,7 8,0 0,-7 z m 0.979726,1 6,0 0,5 -6,0 z m -8.9999996,2 3e-7,1 6.9999993,0 0,-1 z m 0,3 0,1 6.9999996,0 0,-1 z"
         id="rect4847" />
    </g>
  </g>
</svg>
