<svg xmlns="http://www.w3.org/2000/svg" width="24" height="24" version="1.1"><g><g transform="translate(0,-1028.3622) matrix(1.428552,0,0,-1.4999813,-469.42204,1858.3953)"><rect width="0" height="11" x="318.28" y="538.325" fill="#ca7036" stroke="none"/><rect width="0" height="11" x="313.728" y="540.844" fill="#ca7036" stroke="none"/><rect width="0" height="11" x="309.22" y="528.425" fill="#ca7036" stroke="none"/><path fill="#ca7036" stroke="none" d="m 329.9999,537.3623 0,16 10,0 0,-0.01 0.008,0.01 3.99219,-3.9922 0,-0.008 0,-12 -14,0 z m 0.70003,0.66647 12.60017,0 0,11.33348 -3.50005,0 0,3.33337 -9.10012,0 z"/></g><path fill="#ca7036" stroke="none" d="M 15 16 L 15 20 L 19 20 L 19 16 L 15 16 z M 16 17 L 18 17 L 18 19 L 16 19 L 16 17 z" transform="translate(0,-1028.3622) translate(0,1028.3622)"/><path fill="#ca7036" stroke="none" d="M 9 4 L 9 9 L 14 9 L 14 4 L 9 4 z M 10 5 L 13 5 L 13 8 L 10 8 L 10 5 z" transform="translate(0,-1028.3622) translate(0,1028.3622)"/><path fill="#ca7036" stroke="none" d="M 5 13 L 5 16 L 8 16 L 8 13 L 5 13 z M 6 14 L 7 14 L 7 15 L 6 15 L 6 14 z" transform="translate(0,-1028.3622) translate(0,1028.3622)"/><path fill="#ca7036" stroke="none" d="M 11 9 L 11 10 L 11 11 L 11 14 L 8 14 L 8 15 L 10 15 L 10 18 L 10 21 L 11 21 L 11 18 L 15 18 L 15 17 L 11 17 L 11 15 L 12 15 L 12 11 L 12 9 L 11 9 z" transform="translate(0,-1028.3622) translate(0,1028.3622)"/></g></svg>