<svg xmlns="http://www.w3.org/2000/svg" width="24" height="24" version="1.1"><g transform="translate(0,-1028.3622)"><path fill="gray" stroke="none" d="M 10,6 8,8 1,8 1,21 23,21 23,6 Z m -5,3.9 14,0 0,9.1 -14,0 z m 1,1.1 0,1 1,0 0,-1 z m 2,-0.1 0,7.1 8,0 0,-7.1 z m 9,0.1 0,1 1,0 0,-1 z m -11,2 0,1 1,0 0,-1 z m 5,-1 3,2.5 -3,2.5 z m 6,1 0,1 1,0 0,-1 z m -11,2 0,1 1,0 0,-1 z m 11,0 0,1 1,0 0,-1 z m -11,2 0,1 1,0 0,-1 z m 11,0 0,1 1,0 0,-1 z" transform="translate(0,1028.3622)"/><path fill="gray" stroke="none" d="M 2 3 L 2 4 L 2 5 L 3 5 L 12 5 L 22 5 L 22 4 L 12 4 L 11 3 L 2 3 z" transform="translate(0,1028.3622)"/><path fill="gray" fill-opacity=".502" stroke="none" d="M 2 4 L 2 7 L 2 8 L 8 8 L 10 6 L 22 6 L 22 5 L 12 5 L 11 4 L 2 4 z" transform="translate(0,1028.3622)"/><rect width="0" height="7.345" x="6.837" y="1033.66" fill="#6c7a89" stroke="none"/><rect width="0" height="7.345" x="2.877" y="1035.35" fill="#6c7a89" stroke="none"/><rect width="0" height="7.345" x="-1.044" y="1027.05" fill="#6c7a89" stroke="none"/><rect width="0" height="7.345" x="-.309" y="1035.23" fill="#e00a5e" stroke="none"/><rect width="0" height="7.345" x="-4.269" y="1036.91" fill="#e00a5e" stroke="none"/><rect width="0" height="7.345" x="-8.189" y="1028.62" fill="#e00a5e" stroke="none"/></g></svg>