<svg xmlns="http://www.w3.org/2000/svg" width="24" height="24" version="1.1"><g><path fill="gray" stroke="none" d="M 10,6 8,8 1,8 1,21 23,21 23,6 Z m 0,3 4,0 0,5 2,0 -4,4 9,0 0,1 -18,0 0,-1 9,0 -4,-4 2,0 z" transform="translate(0,-1028.3622) translate(0,1028.3622)"/><path fill="gray" stroke="none" d="M 2 3 L 2 4 L 2 5 L 3 5 L 12 5 L 22 5 L 22 4 L 12 4 L 11 3 L 2 3 z" transform="translate(0,-1028.3622) translate(0,1028.3622)"/><path fill="gray" fill-opacity=".502" stroke="none" d="M 2 4 L 2 7 L 2 8 L 8 8 L 10 6 L 22 6 L 22 5 L 12 5 L 11 4 L 2 4 z" transform="translate(0,-1028.3622) translate(0,1028.3622)"/></g></svg>