<svg xmlns="http://www.w3.org/2000/svg" width="24" height="24" version="1.1"><g transform="translate(0,-1028.3622)"><path fill="gray" stroke="none" d="M 10 6 L 8 8 L 1 8 L 1 21 L 23 21 L 23 6 L 10 6 z M 8 9 L 16 9 L 16 16 A 2 1.5 0 0 1 14 17.5 A 2 1.5 0 0 1 12 16 A 2 1.5 0 0 1 14 14.5 A 2 1.5 0 0 1 15 14.703125 L 15 12 L 9 12 L 9 17 A 2 1.5 0 0 1 7 18.5 A 2 1.5 0 0 1 5 17 A 2 1.5 0 0 1 7 15.5 A 2 1.5 0 0 1 8 15.703125 L 8 9 z M 9 10 L 9 11 L 15.037109 11 L 15 10 L 9 10 z" transform="translate(0,1028.3622)"/><path fill="gray" stroke="none" d="M 2 3 L 2 4 L 2 5 L 3 5 L 12 5 L 22 5 L 22 4 L 12 4 L 11 3 L 2 3 z" transform="translate(0,1028.3622)"/><path fill="gray" fill-opacity=".502" stroke="none" d="M 2 4 L 2 7 L 2 8 L 8 8 L 10 6 L 22 6 L 22 5 L 12 5 L 11 4 L 2 4 z" transform="translate(0,1028.3622)"/><rect width="0" height="10.79" x="-49.913" y="1018.17" fill="#04896a" stroke="none"/><rect width="0" height="10.79" x="-43.536" y="1034.77" fill="#16907d" stroke="none"/><rect width="0" height="10.79" x="-41.875" y="1033.99" fill="#6c7a89" stroke="none"/></g></svg>