<svg xmlns="http://www.w3.org/2000/svg" width="24" height="24" version="1.1"><g><path fill="gray" stroke="none" d="M 10 6 L 8 8 L 1 8 L 1 21 L 23 21 L 23 6 L 10 6 z M 12 8 L 14 10 L 14 9 L 15 9 L 15 11 L 17 13 L 17 14 L 16 14 L 16 19 L 13 19 L 13 16 L 11 16 L 11 19 L 8 19 L 8 14 L 7 14 L 7 13 L 12 8 z" transform="translate(0,-1028.3622) translate(0,1028.3622)"/><path fill="gray" stroke="none" d="M 2 3 L 2 4 L 2 5 L 3 5 L 12 5 L 22 5 L 22 4 L 12 4 L 11 3 L 2 3 z" transform="translate(0,-1028.3622) translate(0,1028.3622)"/><path fill="gray" fill-opacity=".502" stroke="none" d="M 2 4 L 2 7 L 2 8 L 8 8 L 10 6 L 22 6 L 22 5 L 12 5 L 11 4 L 2 4 z" transform="translate(0,-1028.3622) translate(0,1028.3622)"/></g></svg>