<svg xmlns="http://www.w3.org/2000/svg" width="24" height="24" version="1.1"><g><path fill="gray" stroke="none" d="m 2,1049.3622 20,0 1,-7 -13,0 -2,2 -7,0 z" transform="translate(0,-1028.3622)"/><path fill="gray" stroke="none" d="M 2 3 L 2 4 L 2 5 L 3 5 L 12 5 L 22 5 L 22 4 L 12 4 L 11 3 L 2 3 z" transform="translate(0,-1028.3622) translate(0,1028.3622)"/><path fill="gray" fill-opacity=".502" stroke="none" d="m 2,4 0,11 0,1 6,0 2,-2 12,0 0,-9 -10,0 -1,-1 z" transform="translate(0,-1028.3622) translate(0,1028.3622)"/></g></svg>