<svg xmlns="http://www.w3.org/2000/svg" width="24" height="24" version="1.1"><g><g transform="translate(0,-1028.3622) matrix(1.428552,0,0,-1.4999813,-469.42204,1858.3953)"><rect width="0" height="11" x="318.28" y="538.325" fill="gray" stroke="none"/><rect width="0" height="11" x="313.728" y="540.844" fill="gray" stroke="none"/><rect width="0" height="11" x="309.22" y="528.425" fill="gray" stroke="none"/><path fill="gray" stroke="none" d="m 329.9999,537.3623 0,16 10,0 0,-0.01 0.008,0.01 3.99219,-3.9922 0,-0.008 0,-12 -14,0 z m 0.70003,0.66647 12.60017,0 0,11.33348 -3.50005,0 0,3.33337 -9.10012,0 z"/></g><path fill="gray" stroke="none" d="M 12 6 A 3 3 0 0 0 9 9 A 3 3 0 0 0 10.787109 11.742188 L 9 18 L 15 18 L 13.210938 11.740234 A 3 3 0 0 0 15 9 A 3 3 0 0 0 12 6 z" transform="translate(0,-1028.3622) translate(0,1028.3622)"/></g></svg>