<?xml version="1.0" encoding="UTF-8" standalone="no"?>
<!-- Created with Inkscape (http://www.inkscape.org/) -->

<svg
   xmlns:dc="http://purl.org/dc/elements/1.1/"
   xmlns:cc="http://creativecommons.org/ns#"
   xmlns:rdf="http://www.w3.org/1999/02/22-rdf-syntax-ns#"
   xmlns:svg="http://www.w3.org/2000/svg"
   xmlns="http://www.w3.org/2000/svg"
   xmlns:sodipodi="http://sodipodi.sourceforge.net/DTD/sodipodi-0.dtd"
   xmlns:inkscape="http://www.inkscape.org/namespaces/inkscape"
   width="24"
   height="24"
   viewBox="0 0 24 24"
   id="svg2"
   version="1.1"
   inkscape:version="0.91 r13725"
   sodipodi:docname="script.svg">
  <defs
     id="defs4" />
  <sodipodi:namedview
     id="base"
     pagecolor="#ffffff"
     bordercolor="#666666"
     borderopacity="1.0"
     inkscape:pageopacity="0.0"
     inkscape:pageshadow="2"
     inkscape:zoom="15.839192"
     inkscape:cx="-14.019623"
     inkscape:cy="16.564516"
     inkscape:document-units="px"
     inkscape:current-layer="layer1"
     showgrid="true"
     inkscape:showpageshadow="false"
     borderlayer="true"
     units="px"
     inkscape:window-width="1864"
     inkscape:window-height="1018"
     inkscape:window-x="56"
     inkscape:window-y="32"
     inkscape:window-maximized="1"
     showguides="true"
     inkscape:guide-bbox="true">
    <inkscape:grid
       type="xygrid"
       id="grid4141"
       empspacing="12" />
  </sodipodi:namedview>
  <metadata
     id="metadata7">
    <rdf:RDF>
      <cc:Work
         rdf:about="">
        <dc:format>image/svg+xml</dc:format>
        <dc:type
           rdf:resource="http://purl.org/dc/dcmitype/StillImage" />
        <dc:title></dc:title>
      </cc:Work>
    </rdf:RDF>
  </metadata>
  <g
     inkscape:label="Layer 1"
     inkscape:groupmode="layer"
     id="layer1"
     transform="translate(0,-1028.3622)">
    <g
       transform="matrix(1.428552,0,0,-1.4999813,-469.42204,1858.3953)"
       id="layer1-2"
       inkscape:label="Capa 1"
       style="fill:#40c0a0;fill-opacity:1">
      <rect
         y="538.32489"
         x="318.27991"
         height="10.999983"
         width="0"
         id="rect4035"
         style="fill:#40c0a0;fill-opacity:1;stroke:none" />
      <rect
         y="540.84399"
         x="313.72791"
         height="10.999983"
         width="0"
         id="rect4035-7"
         style="fill:#40c0a0;fill-opacity:1;stroke:none" />
      <rect
         y="528.42542"
         x="309.22012"
         height="10.999983"
         width="0"
         id="rect4035-9"
         style="fill:#40c0a0;fill-opacity:1;stroke:none" />
      <path
         id="rect4139"
         d="m 329.9999,537.3623 0,16 10,0 0,-0.01 0.008,0.01 3.99219,-3.9922 0,-0.008 0,-12 -14,0 z m 0.70003,0.66647 12.60017,0 0,11.33348 -3.50005,0 0,3.33337 -9.10012,0 z"
         style="fill:#40c0a0;fill-opacity:1;stroke:none"
         inkscape:connector-curvature="0"
         sodipodi:nodetypes="ccccccccccccccccc" />
    </g>
    <rect
       style="opacity:1;fill:#40c0a0;fill-opacity:1;stroke:none;stroke-width:0.5;stroke-linecap:round;stroke-linejoin:round;stroke-miterlimit:4;stroke-dasharray:none;stroke-dashoffset:0;stroke-opacity:1"
       id="rect4153"
       width="5"
       height="1"
       x="12"
       y="1043.3622" />
    <rect
       style="opacity:1;fill:#40c0a0;fill-opacity:1;stroke:none;stroke-width:0.5;stroke-linecap:round;stroke-linejoin:round;stroke-miterlimit:4;stroke-dasharray:none;stroke-dashoffset:0;stroke-opacity:1"
       id="rect4159"
       width="1"
       height="9"
       x="8"
       y="1035.3622" />
    <path
       inkscape:connector-curvature="0"
       id="path4166"
       style="font-style:normal;font-variant:normal;font-weight:normal;font-stretch:normal;font-size:medium;line-height:125%;font-family:Ubuntu;-inkscape-font-specification:Ubuntu;text-align:start;letter-spacing:0px;word-spacing:0px;text-anchor:start;fill:#40c0a0;fill-opacity:1;stroke:none;stroke-width:1px;stroke-linecap:butt;stroke-linejoin:miter;stroke-opacity:1"
       d="m 8.2869599,1042.5433 q 1.4535348,0 1.4535348,-0.9945 0,-0.306 -0.1338782,-0.5164 -0.1243155,-0.22 -0.3442583,-0.373 -0.2199427,-0.1625 -0.5068246,-0.2773 -0.2773191,-0.1147 -0.5928892,-0.2295 -0.3633837,-0.1243 -0.6885165,-0.2773 -0.3251327,-0.1626 -0.564201,-0.373 -0.2390682,-0.2199 -0.3825091,-0.5163 -0.1338782,-0.2965 -0.1338782,-0.7172 0,-0.8703 0.5928892,-1.358 0.5928892,-0.4876 1.6352266,-0.4876 0.6024519,0 1.0901511,0.1338 0.4972615,0.1243 0.7267675,0.2773 l -0.296445,0.7555 q -0.200817,-0.1243 -0.6024516,-0.2391 -0.3920719,-0.1243 -0.918022,-0.1243 -0.2677564,0 -0.4972619,0.057 -0.2295055,0.057 -0.4016346,0.1721 -0.1721291,0.1148 -0.2773191,0.2965 -0.095627,0.1721 -0.095627,0.4112 0,0.2677 0.10519,0.4494 0.10519,0.1817 0.2964446,0.3251 0.1912546,0.1339 0.4398855,0.2487 0.2581937,0.1147 0.564201,0.2295 0.4303228,0.1721 0.7841438,0.3442 0.3633837,0.1722 0.6215773,0.4112 0.267756,0.2391 0.411197,0.5738 0.143441,0.3251 0.143441,0.7937 0,0.8702 -0.640703,1.3388 -0.6311396,0.4686 -1.7882298,0.4686 -0.3920719,0 -0.7267674,-0.057 -0.3251328,-0.048 -0.5833265,-0.1148 -0.2581936,-0.077 -0.4494482,-0.153 -0.1816919,-0.086 -0.2868819,-0.1434 l 0.2773191,-0.765 q 0.2199428,0.1243 0.6693911,0.2773 0.4494482,0.153 1.0997138,0.153 z" />
  </g>
</svg>
