<svg xmlns="http://www.w3.org/2000/svg" width="24" height="24" version="1.1"><g transform="translate(0,-1028.3622)"><g transform="matrix(1.428552,0,0,-1.4999813,-469.42204,1858.3953)"><rect width="0" height="11" x="318.28" y="538.325" fill="#4db375" stroke="none"/><rect width="0" height="11" x="313.728" y="540.844" fill="#4db375" stroke="none"/><rect width="0" height="11" x="309.22" y="528.425" fill="#4db375" stroke="none"/><path fill="#4db375" stroke="none" d="m 329.9999,537.3623 0,16 10,0 0,-0.01 0.008,0.01 3.99219,-3.9922 0,-0.008 0,-12 -14,0 z m 0.70003,0.66647 12.60017,0 0,11.33348 -3.50005,0 0,3.33337 -9.10012,0 z"/></g><rect width="0" height="14.668" x="-51.686" y="1014.56" fill="#8e44ad" stroke="none"/><rect width="0" height="14.668" x="-44.725" y="1037.13" fill="#8e44ad" stroke="none"/><rect width="0" height="14.668" x="-42.912" y="1036.07" fill="#8e44ad" stroke="none"/><path fill="#4db375" stroke="none" d="m 4,4 0,16 16,0 0,-13 -5,0 0,-3 z m 1.0058594,1 8.9960936,0 0,2 -8.9960936,0 z M 4.9941406,8 9,8 9,9 4.9941406,9 Z M 10,8 l 3.998047,0 0,1 L 10,9 Z M 15.008789,8 19,8 19,9 15.008789,9 Z M 4.9941406,10 9,10 9,11 4.9941406,11 Z M 10,10 l 3.998047,0 0,1 L 10,11 Z M 15.008789,10 19,10 l 0,1 -3.991211,0 z M 4.9941406,12 9,12 9,13 4.9941406,13 Z M 10,12 l 3.998047,0 0,1 L 10,13 Z M 15.008789,12 19,12 l 0,1 -3.991211,0 z M 4.9941406,14 9,14 9,15 4.9941406,15 Z M 10,14 l 3.998047,0 0,1 L 10,15 Z M 15.008789,14 19,14 l 0,1 -3.991211,0 z M 4.9941406,16 9,16 9,17 4.9941406,17 Z M 10,16 l 3.998047,0 0,1 L 10,17 Z M 15.008789,16 19,16 l 0,1 -3.991211,0 z M 4.9941406,18 9,18 9,19 4.9941406,19 Z M 10,18 l 3.998047,0 0,1 L 10,19 Z M 15.008789,18 19,18 l 0,1 -3.991211,0 z" transform="translate(0,1028.3622)"/></g></svg>