<svg xmlns="http://www.w3.org/2000/svg" width="24" height="24" version="1.1"><g transform="translate(0,-1028.3622)"><g transform="matrix(1.428552,0,0,-1.4999813,-469.42204,1858.3953)"><rect width="0" height="11" x="318.28" y="538.325" fill="#f40c67" stroke="none"/><rect width="0" height="11" x="313.728" y="540.844" fill="#f40c67" stroke="none"/><rect width="0" height="11" x="309.22" y="528.425" fill="#f40c67" stroke="none"/><path fill="#f40c67" stroke="none" d="m 329.9999,537.3623 0,16 10,0 0,-0.01 0.008,0.01 3.99219,-3.9922 0,-0.008 0,-12 -14,0 z m 0.70003,0.66647 12.60017,0 0,11.33348 -3.50005,0 0,3.33337 -9.10012,0 z"/></g><rect width="0" height="7.345" x="2.863" y="1034.1" fill="#6c7a89" stroke="none"/><rect width="0" height="7.345" x="-1.096" y="1035.78" fill="#6c7a89" stroke="none"/><rect width="0" height="7.345" x="-5.017" y="1027.49" fill="#6c7a89" stroke="none"/><rect width="0" height="7.345" x="-4.282" y="1035.66" fill="#e00a5e" stroke="none"/><path fill="#f40c67" stroke="none" d="M 5 7 L 5 18 L 19 18 L 19 7 L 5 7 z M 6 8 L 7 8 L 7 9 L 6 9 L 6 8 z M 8 8 L 16 8 L 16 17 L 8 17 L 8 8 z M 17 8 L 18 8 L 18 9 L 17 9 L 17 8 z M 6 10 L 7 10 L 7 11 L 6 11 L 6 10 z M 17 10 L 18 10 L 18 11 L 17 11 L 17 10 z M 6 12 L 7 12 L 7 13 L 6 13 L 6 12 z M 17 12 L 18 12 L 18 13 L 17 13 L 17 12 z M 6 14 L 7 14 L 7 15 L 6 15 L 6 14 z M 17 14 L 18 14 L 18 15 L 17 15 L 17 14 z M 6 16 L 7 16 L 7 17 L 6 17 L 6 16 z M 17 16 L 18 16 L 18 17 L 17 17 L 17 16 z" transform="translate(0,1028.3622)"/><rect width="0" height="7.345" x="-8.242" y="1037.35" fill="#e00a5e" stroke="none"/><rect width="0" height="7.345" x="-12.162" y="1029.05" fill="#e00a5e" stroke="none"/><path fill="#f40c67" stroke="none" d="m 11,1038.3622 0,5 3,-2.5 z"/></g></svg>