<svg xmlns="http://www.w3.org/2000/svg" width="24" height="24" version="1.1"><g transform="translate(0,-1028.3622)"><path fill="#000" stroke="none" d="m 16,1032.3622 0,16 7,0 0,-16 z m 1,1 5,0 0,1 -5,0 z m 0,2 5,0 0,1 -5,0 z m 4,2 1,0 0,1 -1,0 z"/><path fill="#000" stroke="none" d="m 2,1046.3622 -1,4 14,0 -1,-4 z"/><path fill="#000" stroke="none" d="m 2,1032.3622 0,10 5,0 0,1 -4,0 0,1 10,0 0,-1 -4,0 0,-1 5,0 0,-1 0,-9 z m 2,2 8,0 0,6 -8,0 z"/><rect width="8" height="6" x="4" y="1034.36" fill="#000" fill-opacity=".251" stroke="none"/></g></svg>