<svg xmlns="http://www.w3.org/2000/svg" width="24" height="24" version="1.1"><g><path fill="#000" fill-opacity=".251" stroke="none" d="M 12 4 A 8 8 0 0 0 4 12 L 8 12 A 4 4 0 0 1 12 8 L 12 4 z M 16 12 A 4 4 0 0 1 12 16 L 12 20 A 8 8 0 0 0 20 12 L 16 12 z" transform="translate(0,-1028.3622) translate(0,1028.3622)"/><path fill="#000" stroke="none" d="M 12 2 A 10 10 0 0 0 2 12 A 10 10 0 0 0 12 22 A 10 10 0 0 0 22 12 A 10 10 0 0 0 12 2 z M 12 3 A 9 9 0 0 1 21 12 A 9 9 0 0 1 12 21 A 9 9 0 0 1 3 12 A 9 9 0 0 1 12 3 z" transform="translate(0,-1028.3622) translate(0,1028.3622)"/><path fill="#000" fill-opacity=".502" stroke="none" d="M 12 9 A 3 3 0 0 0 9 12 A 3 3 0 0 0 12 15 A 3 3 0 0 0 15 12 A 3 3 0 0 0 12 9 z M 12 11 A 1 1 0 0 1 13 12 A 1 1 0 0 1 12 13 A 1 1 0 0 1 11 12 A 1 1 0 0 1 12 11 z" transform="translate(0,-1028.3622) translate(0,1028.3622)"/></g></svg>