<?xml version="1.0" encoding="UTF-8" standalone="no"?>
<!-- Created with Inkscape (http://www.inkscape.org/) -->

<svg
   xmlns:dc="http://purl.org/dc/elements/1.1/"
   xmlns:cc="http://creativecommons.org/ns#"
   xmlns:rdf="http://www.w3.org/1999/02/22-rdf-syntax-ns#"
   xmlns:svg="http://www.w3.org/2000/svg"
   xmlns="http://www.w3.org/2000/svg"
   xmlns:sodipodi="http://sodipodi.sourceforge.net/DTD/sodipodi-0.dtd"
   xmlns:inkscape="http://www.inkscape.org/namespaces/inkscape"
   width="24"
   height="24"
   viewBox="0 0 24 24"
   id="svg2"
   version="1.1"
   inkscape:version="0.91 r"
   sodipodi:docname="headphones.svg">
  <defs
     id="defs4" />
  <sodipodi:namedview
     id="base"
     pagecolor="#ffffff"
     bordercolor="#666666"
     borderopacity="1.0"
     inkscape:pageopacity="0.0"
     inkscape:pageshadow="2"
     inkscape:zoom="2.1822917"
     inkscape:cx="-68.1255"
     inkscape:cy="13.256466"
     inkscape:document-units="px"
     inkscape:current-layer="layer1"
     showgrid="true"
     units="px"
     inkscape:showpageshadow="false"
     borderlayer="true"
     inkscape:window-width="1864"
     inkscape:window-height="1016"
     inkscape:window-x="56"
     inkscape:window-y="36"
     inkscape:window-maximized="1"
     showguides="true">
    <inkscape:grid
       type="xygrid"
       id="grid4136"
       empspacing="12" />
  </sodipodi:namedview>
  <metadata
     id="metadata7">
    <rdf:RDF>
      <cc:Work
         rdf:about="">
        <dc:format>image/svg+xml</dc:format>
        <dc:type
           rdf:resource="http://purl.org/dc/dcmitype/StillImage" />
        <dc:title />
      </cc:Work>
    </rdf:RDF>
  </metadata>
  <g
     inkscape:label="Layer 1"
     inkscape:groupmode="layer"
     id="layer1"
     transform="translate(0,-1028.3622)">
    <path
       style="opacity:1;fill:#000000;fill-opacity:1;stroke:none;stroke-width:1;stroke-linecap:round;stroke-linejoin:round;stroke-miterlimit:4;stroke-dasharray:none;stroke-dashoffset:0;stroke-opacity:1"
       d="M 12 2 A 10 10 0 0 0 2 12 L 2 18 L 2 20 L 4 20 L 4 19 L 5 19 L 5 20 C 5 21.10801 5.8919904 22 7 22 L 8 22 C 9.1080096 22 10 21.10801 10 20 L 10 17 C 10 15.89199 9.1080096 15 8 15 L 7 15 C 5.8919904 15 5 15.89199 5 17 L 5 18 L 4 18 L 4 12 A 8 8 0 0 1 12 4 A 8 8 0 0 1 20 12 L 20 18 L 19 18 L 19 17 C 19 15.891989 18.108011 15 17 15 L 16 15 C 14.891989 15 14 15.891989 14 17 L 14 20 C 14 21.108011 14.891989 22 16 22 L 17 22 C 18.108011 22 19 21.108011 19 20 L 19 19 L 20 19 L 20 20 L 22 20 L 22 18 L 22 12 A 10 10 0 0 0 12 2 z "
       transform="translate(0,1028.3622)"
       id="path4137" />
  </g>
</svg>
