<svg xmlns="http://www.w3.org/2000/svg" width="24" height="24" version="1.1"><g transform="translate(0,-1028.3622)"><path fill="#000" stroke="none" d="M 3,7 C 1.892,7 1,7.892 1,9 l 0,7 c 0,1.108 0.892,2 2,2 l 18,0 c 1.108,0 2,-0.892 2,-2 L 23,9 C 23,7.892 22.108,7 21,7 Z m 0,1 18,0 c 0.554,0 1,0.446 1,1 l 0,7 c 0,0.554 -0.446,1 -1,1 L 3,17 C 2.446,17 2,16.554 2,16 L 2,9 C 2,8.446 2.446,8 3,8 Z" transform="translate(0,1028.3622)"/><rect width="2" height="1" x="3" y="1043.36" fill="#000" stroke="none"/><rect width="1" height="1" x="20" y="1043.36" fill="#000" stroke="none"/><rect width="1" height="1" x="18" y="1043.36" fill="#000" stroke="none"/><rect width="1" height="1" x="18" y="1041.36" fill="#000" stroke="none"/><rect width="1" height="1" x="16" y="1043.36" fill="#000" stroke="none"/><rect width="9" height="1" x="6" y="1043.36" fill="#000" stroke="none"/><path fill="#000" stroke="none" d="m 19,1039.3622 0,1 1,0 0,1 1,0 0,-2 -1,0 -1,0 z"/><rect width="1" height="1" x="3" y="1037.36" fill="#000" stroke="none"/><rect width="1" height="1" x="5" y="1037.36" fill="#000" stroke="none"/><rect width="1" height="1" x="7" y="1037.36" fill="#000" stroke="none"/><rect width="1" height="1" x="9" y="1037.36" fill="#000" stroke="none"/><rect width="1" height="1" x="11" y="1037.36" fill="#000" stroke="none"/><rect width="1" height="1" x="13" y="1037.36" fill="#000" stroke="none"/><rect width="1" height="1" x="15" y="1037.36" fill="#000" stroke="none"/><rect width="1" height="1" x="17" y="1037.36" fill="#000" stroke="none"/><rect width="2" height="1" x="19" y="1037.36" fill="#000" stroke="none"/><rect width="1" height="1" x="20" y="1041.36" fill="#000" stroke="none"/><rect width="1" height="1" x="3" y="1039.36" fill="#000" stroke="none"/><rect width="1" height="1" x="5" y="1039.36" fill="#000" stroke="none"/><rect width="1" height="1" x="7" y="1039.36" fill="#000" stroke="none"/><rect width="1" height="1" x="9" y="1039.36" fill="#000" stroke="none"/><rect width="1" height="1" x="11" y="1039.36" fill="#000" stroke="none"/><rect width="1" height="1" x="13" y="1039.36" fill="#000" stroke="none"/><rect width="1" height="1" x="15" y="1039.36" fill="#000" stroke="none"/><rect width="1" height="1" x="17" y="1039.36" fill="#000" stroke="none"/><rect width="1" height="1" x="3" y="1041.36" fill="#000" stroke="none"/><rect width="1" height="1" x="5" y="1041.36" fill="#000" stroke="none"/><rect width="1" height="1" x="7" y="1041.36" fill="#000" stroke="none"/><rect width="1" height="1" x="9" y="1041.36" fill="#000" stroke="none"/><rect width="1" height="1" x="11" y="1041.36" fill="#000" stroke="none"/><rect width="1" height="1" x="13" y="1041.36" fill="#000" stroke="none"/><rect width="1" height="1" x="15" y="1041.36" fill="#000" stroke="none"/></g></svg>