<?xml version="1.0" encoding="UTF-8" standalone="no"?>
<!-- Created with Inkscape (http://www.inkscape.org/) -->

<svg
   xmlns:dc="http://purl.org/dc/elements/1.1/"
   xmlns:cc="http://creativecommons.org/ns#"
   xmlns:rdf="http://www.w3.org/1999/02/22-rdf-syntax-ns#"
   xmlns:svg="http://www.w3.org/2000/svg"
   xmlns="http://www.w3.org/2000/svg"
   xmlns:sodipodi="http://sodipodi.sourceforge.net/DTD/sodipodi-0.dtd"
   xmlns:inkscape="http://www.inkscape.org/namespaces/inkscape"
   width="24"
   height="24"
   viewBox="0 0 24 24"
   id="svg2"
   version="1.1"
   inkscape:version="0.91 r"
   sodipodi:docname="microphone.svg">
  <defs
     id="defs4" />
  <sodipodi:namedview
     id="base"
     pagecolor="#ffffff"
     bordercolor="#666666"
     borderopacity="1.0"
     inkscape:pageopacity="0.0"
     inkscape:pageshadow="2"
     inkscape:zoom="24.689812"
     inkscape:cx="10.748251"
     inkscape:cy="11.506363"
     inkscape:document-units="px"
     inkscape:current-layer="layer1"
     showgrid="true"
     units="px"
     inkscape:showpageshadow="false"
     borderlayer="true"
     inkscape:window-width="1864"
     inkscape:window-height="1016"
     inkscape:window-x="56"
     inkscape:window-y="36"
     inkscape:window-maximized="1"
     showguides="true">
    <inkscape:grid
       type="xygrid"
       id="grid4136"
       empspacing="12" />
  </sodipodi:namedview>
  <metadata
     id="metadata7">
    <rdf:RDF>
      <cc:Work
         rdf:about="">
        <dc:format>image/svg+xml</dc:format>
        <dc:type
           rdf:resource="http://purl.org/dc/dcmitype/StillImage" />
        <dc:title />
      </cc:Work>
    </rdf:RDF>
  </metadata>
  <g
     inkscape:label="Layer 1"
     inkscape:groupmode="layer"
     id="layer1"
     transform="translate(0,-1028.3622)">
    <path
       style="opacity:1;fill:#000000;fill-opacity:1;stroke:none;stroke-width:1;stroke-linecap:round;stroke-linejoin:round;stroke-miterlimit:4;stroke-dasharray:none;stroke-dashoffset:0;stroke-opacity:1"
       d="M 12 1 C 9.784 1 8 2.784 8 5 L 8 13 C 8 15.216 9.784 17 12 17 C 14.216 17 16 15.216 16 13 L 16 5 C 16 2.784 14.216 1 12 1 z M 6 12 C 5.4633125 12 5.0364498 12.421343 5.0097656 12.951172 C 5.0072172 12.950808 5.0045019 12.951535 5.0019531 12.951172 A 7 7 0 0 0 5 13 A 7 7 0 0 0 11 19.921875 L 11 21 L 6 21 L 6 23 L 11 23 L 13 23 L 18 23 L 18 21 L 13 21 L 13 19.919922 A 7 7 0 0 0 19 13 C 19 12.446 18.554 12 18 12 C 17.446 12 17 12.446 17 13 A 5 5 0 0 1 12 18 A 5 5 0 0 1 7 13 C 7 12.446 6.554 12 6 12 z "
       transform="translate(0,1028.3622)"
       id="circle4145" />
  </g>
</svg>
