<svg xmlns="http://www.w3.org/2000/svg" width="24" height="24" version="1.1"><g transform="translate(0,-1028.3622)"><path fill="#000" stroke="none" d="M 8 2 C 6.892 2 6 2.892 6 4 L 6 20 C 6 21.108 6.892 22 8 22 L 16 22 C 17.108 22 18 21.108 18 20 L 18 4 C 18 2.892 17.108 2 16 2 L 8 2 z M 8 4 L 16 4 L 16 18 L 8 18 L 8 4 z M 11 19 L 13 19 L 13 21 L 11 21 L 11 19 z" transform="translate(0,1028.3622)"/><rect width="8" height="14" x="8" y="1032.36" fill="#000" fill-opacity=".251" stroke="none"/></g></svg>