<svg xmlns="http://www.w3.org/2000/svg" width="24" height="24" version="1.1"><g transform="translate(0,-1028.3622)"><path fill="#000" stroke="none" d="M 3,4 C 1.892,4 1,4.892 1,6 l 0,12 c 0,1.108 0.892,2 2,2 l 18,0 c 1.108,0 2,-0.892 2,-2 L 23,6 C 23,4.892 22.108,4 21,4 Z M 21.5,5 C 21.777,5 22,5.223 22,5.5 22,5.777 21.777,6 21.5,6 21.223,6 21,5.777 21,5.5 21,5.223 21.223,5 21.5,5 Z M 4,6 20,6 20,18 4,18 Z" transform="translate(0,1028.3622)"/><rect width="16" height="12" x="4" y="1034.36" fill="#000" fill-opacity=".251" stroke="none"/></g></svg>