<svg xmlns="http://www.w3.org/2000/svg" width="24" height="24" version="1.1"><rect width="2" height="7" x="11" y="1" fill="#000" stroke="none"/><rect width="7" height="2" x="16" y="11" fill="#000" stroke="none"/><rect width="2" height="7" x="11" y="16" fill="#000" stroke="none"/><rect width="7" height="2" x="1" y="11" fill="#000" stroke="none"/><path fill="#000" stroke="none" d="M 12 3 A 9 9 0 0 0 3 12 A 9 9 0 0 0 12 21 A 9 9 0 0 0 21 12 A 9 9 0 0 0 12 3 z M 12 5 A 7 7 0 0 1 19 12 A 7 7 0 0 1 12 19 A 7 7 0 0 1 5 12 A 7 7 0 0 1 12 5 z"/></svg>