<?xml version="1.0" encoding="UTF-8" standalone="no"?>
<!-- Created with Inkscape (http://www.inkscape.org/) -->

<svg
   xmlns:dc="http://purl.org/dc/elements/1.1/"
   xmlns:cc="http://creativecommons.org/ns#"
   xmlns:rdf="http://www.w3.org/1999/02/22-rdf-syntax-ns#"
   xmlns:svg="http://www.w3.org/2000/svg"
   xmlns="http://www.w3.org/2000/svg"
   xmlns:sodipodi="http://sodipodi.sourceforge.net/DTD/sodipodi-0.dtd"
   xmlns:inkscape="http://www.inkscape.org/namespaces/inkscape"
   width="24"
   height="24"
   viewBox="0 0 24 24"
   id="svg2"
   version="1.1"
   inkscape:version="0.91 r13725"
   sodipodi:docname="config.svg">
  <defs
     id="defs4" />
  <sodipodi:namedview
     id="base"
     pagecolor="#ffffff"
     bordercolor="#666666"
     borderopacity="1.0"
     inkscape:pageopacity="0.0"
     inkscape:pageshadow="2"
     inkscape:zoom="22.4"
     inkscape:cx="8.0642981"
     inkscape:cy="9.8315497"
     inkscape:document-units="px"
     inkscape:current-layer="layer1"
     showgrid="true"
     inkscape:showpageshadow="false"
     borderlayer="true"
     units="px"
     inkscape:window-width="1864"
     inkscape:window-height="1018"
     inkscape:window-x="56"
     inkscape:window-y="32"
     inkscape:window-maximized="1"
     showguides="true"
     inkscape:guide-bbox="true">
    <inkscape:grid
       type="xygrid"
       id="grid4141"
       empspacing="12" />
  </sodipodi:namedview>
  <metadata
     id="metadata7">
    <rdf:RDF>
      <cc:Work
         rdf:about="">
        <dc:format>image/svg+xml</dc:format>
        <dc:type
           rdf:resource="http://purl.org/dc/dcmitype/StillImage" />
        <dc:title />
      </cc:Work>
    </rdf:RDF>
  </metadata>
  <g
     inkscape:label="Layer 1"
     inkscape:groupmode="layer"
     id="layer1"
     transform="translate(0,-1028.3622)">
    <path
       style="opacity:1;fill:#000000;fill-opacity:1;stroke:none;stroke-width:0.5;stroke-linecap:round;stroke-linejoin:round;stroke-miterlimit:4;stroke-dasharray:none;stroke-dashoffset:0;stroke-opacity:1"
       d="M 10 3 L 10 4.7871094 A 7.5000002 7.5000239 0 0 0 8.3105469 5.4824219 L 7.0507812 4.2226562 L 6.6972656 4.5761719 L 4.5761719 6.6972656 L 4.2226562 7.0507812 L 5.484375 8.3125 A 7.5000002 7.5000239 0 0 0 4.7773438 10 L 3 10 L 3 10.5 L 3 13.5 L 3 14 L 4.7871094 14 A 7.5000002 7.5000239 0 0 0 5.4824219 15.689453 L 4.2226562 16.949219 L 4.5761719 17.302734 L 6.6972656 19.423828 L 7.0507812 19.777344 L 8.3125 18.515625 A 7.5000002 7.5000239 0 0 0 10 19.222656 L 10 21 L 10.5 21 L 13.5 21 L 14 21 L 14 19.212891 A 7.5000002 7.5000239 0 0 0 15.689453 18.517578 L 16.949219 19.777344 L 17.302734 19.423828 L 19.423828 17.302734 L 19.777344 16.949219 L 18.515625 15.6875 A 7.5000002 7.5000239 0 0 0 19.222656 14 L 21 14 L 21 13.5 L 21 10.5 L 21 10 L 19.212891 10 A 7.5000002 7.5000239 0 0 0 18.517578 8.3105469 L 19.777344 7.0507812 L 19.423828 6.6972656 L 17.302734 4.5761719 L 16.949219 4.2226562 L 15.6875 5.484375 A 7.5000002 7.5000239 0 0 0 14 4.7773438 L 14 3 L 13.5 3 L 10.5 3 L 10 3 z M 12 7.5 A 4.5000001 4.5000143 0 0 1 16.5 12 A 4.5000001 4.5000143 0 0 1 12 16.5 A 4.5000001 4.5000143 0 0 1 7.5 12 A 4.5000001 4.5000143 0 0 1 12 7.5 z "
       transform="translate(0,1028.3622)"
       id="rect18415" />
  </g>
</svg>
