<svg xmlns="http://www.w3.org/2000/svg" width="24" height="24" version="1.1"><g transform="translate(0,-1028.3622)"><path fill="#000" stroke="none" d="M 12 2 A 10 10 0 0 0 2 12 A 10 10 0 0 0 12 22 A 10 10 0 0 0 22 12 A 10 10 0 0 0 12 2 z M 12 5 A 7 7 0 0 1 19 12 A 7 7 0 0 1 12 19 A 7 7 0 0 1 5 12 A 7 7 0 0 1 12 5 z" transform="translate(0,1028.3622)"/><rect width="18" height="3" x="-736.162" y="742.632" fill="#000" stroke="none" transform="matrix(0.70710678,-0.70710678,0.70710678,0.70710678,0,0)"/></g></svg>