<svg xmlns="http://www.w3.org/2000/svg" width="24" height="24" version="1.1"><g><path fill="#000" stroke="none" d="M 11 2 L 11 22 L 20 20 L 20 4 L 11 2 z M 14 11 A 1 1 0 0 1 15 12 A 1 1 0 0 1 14 13 A 1 1 0 0 1 13 12 A 1 1 0 0 1 14 11 z" transform="translate(0,-1028.3622) translate(0,1028.3622)"/><path fill="#000" stroke="none" d="m 6,1038.3622 0,-2 3,3 1,1 -4,4 0,-2 -4,0 0,-4 z" transform="translate(0,-1028.3622)"/><path fill="#000" stroke="none" d="M 4 4 L 4 5 L 4 9 L 5 9 L 5 5 L 10 5 L 10 4 L 5 4 L 4 4 z" transform="translate(0,-1028.3622) translate(0,1028.3622)"/><path fill="#000" stroke="none" d="M 4 15 L 4 19 L 4 20 L 5 20 L 10 20 L 10 19 L 5 19 L 5 15 L 4 15 z" transform="translate(0,-1028.3622) translate(0,1028.3622)"/></g></svg>