<?xml version="1.0" encoding="UTF-8" standalone="no"?>
<svg xmlns="http://www.w3.org/2000/svg" version="1.1" width="24" height="24">
    <g transform="translate(0,-1028.3622)">
        <path d="m 13,1030.3622 0,20 -9,-2 0,-16 9,-2 z m -3,9 a 1,1 0 0 0 -1,1 1,1 0 0 0 1,1 1,1 0 0 0 1,-1 1,1 0 0 0 -1,-1 z" fill="#000" stroke="none" />
        <path d="m 18,1038.3622 0,-2 3,3 1,1 -4,4 0,-2 -4,0 0,-4 z" fill="#000" stroke="none" />
        <path d="m 20,1032.3622 0,1 0,2 -1,0 0,-2 -5,0 0,-1 5,0 z" fill="#000" stroke="none" />
        <path d="m 20,1045.3622 0,2 0,1 -1,0 -5,0 0,-1 5,0 0,-2 z" fill="#000" stroke="none" />
    </g>
</svg>
