<?xml version="1.0" encoding="UTF-8" standalone="no"?>
<svg xmlns="http://www.w3.org/2000/svg" version="1.1" width="24" height="24">
    <g transform="translate(0,-1028.3622)">
        <path d="m 10,7 0,15 11,0 0,-15 z m 2,2 7,0 0,11 -7,0 z" style="fill:#000000;stroke:none" transform="translate(0,1028.3622)" />
        <path d="M 10 4 L 8 6 L 1 6 L 1 19 L 9 19 L 9 6 L 22 6 L 22 19 L 23 19 L 23 4 L 10 4 z " style="fill:#000000;fill-opacity:0.50196081;stroke:none" transform="translate(0,1028.3622)" />
        <path d="M 2 1 L 2 2 L 2 3 L 2 5 L 2 6 L 8 6 L 10 4 L 22 4 L 22 3 L 22 2 L 12 2 L 11 1 L 2 1 z " style="fill:#000000;stroke:none" transform="translate(0,1028.3622)" />
    </g>
</svg>
