<svg xmlns="http://www.w3.org/2000/svg" width="24" height="24" version="1.1"><g transform="translate(0,-1028.3622)"><path fill="#000" stroke="none" d="M 8 3 A 6 6 0 0 0 2 9 A 6 6 0 0 0 8 15 A 6 6 0 0 0 12.240234 13.240234 L 14.5 15.5 L 14 16 L 20 22 L 22 20 L 16 14 L 15.5 14.5 L 13.119141 12.119141 A 6 6 0 0 0 14 9 A 6 6 0 0 0 8 3 z M 8 5 A 4 4 0 0 1 12 9 A 4 4 0 0 1 8 13 A 4 4 0 0 1 4 9 A 4 4 0 0 1 8 5 z" transform="translate(0,1028.3622)"/><rect width="1" height="1" x="5" y="1035.36" fill="#000" stroke="none"/><rect width="1" height="1" x="7" y="1035.36" fill="#000" stroke="none"/><rect width="1" height="1" x="9" y="1035.36" fill="#000" stroke="none"/><rect width="1" height="1" x="10" y="1036.36" fill="#000" stroke="none"/><rect width="1" height="1" x="10" y="1038.36" fill="#000" stroke="none"/><rect width="1" height="1" x="8" y="1038.36" fill="#000" stroke="none"/><rect width="1" height="1" x="6" y="1038.36" fill="#000" stroke="none"/><rect width="1" height="1" x="5" y="1037.36" fill="#000" stroke="none"/><rect width="1" height="1" x="-11" y="1035.36" fill="#000" fill-opacity=".251" stroke="none" transform="scale(-1,1)"/><rect width="1" height="1" x="-9" y="1035.36" fill="#000" fill-opacity=".251" stroke="none" transform="scale(-1,1)"/><rect width="1" height="1" x="-7" y="1035.36" fill="#000" fill-opacity=".251" stroke="none" transform="scale(-1,1)"/><rect width="1" height="1" x="-6" y="1036.36" fill="#000" fill-opacity=".251" stroke="none" transform="scale(-1,1)"/><rect width="1" height="1" x="-6" y="1038.36" fill="#000" fill-opacity=".251" stroke="none" transform="scale(-1,1)"/><rect width="1" height="1" x="-8" y="1038.36" fill="#000" fill-opacity=".251" stroke="none" transform="scale(-1,1)"/><rect width="1" height="1" x="-10" y="1038.36" fill="#000" fill-opacity=".251" stroke="none" transform="scale(-1,1)"/><rect width="1" height="1" x="-11" y="1037.36" fill="#000" fill-opacity=".251" stroke="none" transform="scale(-1,1)"/></g></svg>